<svg version="1.1" xmlns="http://www.w3.org/2000/svg" style="display: block;" viewBox="0 0 2048 2048" width="512" height="512" preserveAspectRatio="none">
<defs>
	<linearGradient id="Gradient1" gradientUnits="userSpaceOnUse" x1="1412.03" y1="1030.44" x2="635.539" y2="228.982">
		<stop class="stop0" offset="0" stop-opacity="1" stop-color="rgb(77,63,217)"/>
		<stop class="stop1" offset="1" stop-opacity="1" stop-color="rgb(45,160,225)"/>
	</linearGradient>
	<linearGradient id="Gradient2" gradientUnits="userSpaceOnUse" x1="1552.27" y1="2356.94" x2="496.495" y2="1311.94">
		<stop class="stop0" offset="0" stop-opacity="1" stop-color="rgb(106,0,207)"/>
		<stop class="stop1" offset="1" stop-opacity="1" stop-color="rgb(64,98,221)"/>
	</linearGradient>
</defs>
<path transform="translate(0,0)" fill="url(#Gradient2)" d="M 514.388 1997.14 C 492.853 1997.93 468.83 1997.44 447.144 1997.43 L 330.639 1997.39 L 255.345 1997.45 C 228.323 1997.47 202.617 1998.32 175.987 1993.01 C 104.685 1978.8 52.4389 1929.82 50.6924 1854.36 C 48.7711 1771.35 106.344 1709.3 157.781 1651.03 C 167.226 1640.41 187.328 1623.16 198.376 1613.38 C 355.909 1473.92 574.351 1400.54 779.165 1367.72 C 842.147 1357.51 905.704 1351.23 969.466 1348.92 C 1297.88 1340.16 1695.06 1426.31 1920.7 1685.54 C 1982.82 1756.9 2038.25 1864.41 1959.01 1949.93 C 1905.8 2007.36 1809.34 1997.74 1736.7 1997.73 L 1518.91 1997.73 L 753.587 1997.52 C 752.146 1997.16 750.21 1996.69 748.708 1996.66 C 671.127 1995.23 593.636 1994.06 516.008 1995.81 C 515.468 1996.25 514.928 1996.69 514.388 1997.14 z"/>
<path transform="translate(0,0)" fill="url(#Gradient1)" d="M 698.813 166.864 C 699.226 166.396 699.639 165.928 700.052 165.461 C 896.467 4.25073 1190.37 14.0207 1374.39 189.773 C 1477.49 288.24 1533.25 416.963 1534.44 559.878 C 1534.69 592.668 1534.55 625.476 1534.55 658.269 C 1534.54 689.156 1534.91 719.996 1531.88 750.783 C 1518.57 886.185 1449.48 1013.29 1343.18 1098.19 C 1253.14 1169.74 1141.69 1209.02 1026.69 1209.72 C 893.692 1210.52 765.678 1159.18 670.091 1066.71 C 570.164 970.471 513.609 837.773 513.389 699.038 L 513.279 604.467 C 513.287 574.052 513.069 543.272 515.779 512.938 C 525.431 404.928 574.796 290.32 651.18 212.31 C 662.452 200.794 673.899 189.45 685.516 178.281 L 698.813 166.864 z"/>
<path transform="translate(0,0)" fill="rgb(44,159,226)" d="M 698.813 166.864 C 699.312 173.558 694.055 183.385 688.503 187.139 L 685.139 184.68 L 687.427 187.572 C 685.743 187.252 686.45 187.641 685.288 186.443 C 685.25 183.551 685.135 181.171 685.516 178.281 L 698.813 166.864 z"/>
<path transform="translate(0,0)" fill="rgb(44,159,226)" d="M 658.554 212.691 C 659.806 216.614 649.132 226.179 645.879 230.217 L 645.513 227.726 C 648.332 222.854 653.479 215.249 658.554 212.691 z"/>
<path transform="translate(0,0)" fill="rgb(80,51,217)" fill-opacity="0.968627" d="M 514.388 1997.14 C 514.928 1996.69 515.468 1996.25 516.008 1995.81 C 593.636 1994.06 671.127 1995.23 748.708 1996.66 C 750.21 1996.69 752.146 1997.16 753.587 1997.52 L 594.391 1997.46 C 572.516 1997.46 534.679 1998.74 514.388 1997.14 z"/>
</svg>